<?xml version="1.0" standalone="no"?>
<!DOCTYPE svg PUBLIC "-//W3C//DTD SVG 20010904//EN"
 "http://www.w3.org/TR/2001/REC-SVG-20010904/DTD/svg10.dtd">
<svg version="1.0" xmlns="http://www.w3.org/2000/svg"
 width="389.000000pt" height="389.000000pt" viewBox="0 0 389.000000 389.000000"
 preserveAspectRatio="xMidYMid meet">

<g transform="translate(0.000000,389.000000) scale(0.100000,-0.100000)"
fill="#000000" stroke="none">
<path d="M2539 3840 c-90 -8 -231 -51 -321 -96 -29 -14 -91 -51 -138 -82 -111
-73 -385 -347 -796 -797 -797 -187 -431 -470 -578 -630 -298 -322 -397 -446
-455 -568 -83 -175 -116 -339 -108 -551 5 -163 20 -238 76 -382 106 -275 358
-532 621 -633 266 -103 610 -91 866 28 200 94 310 199 990 948 164 181 380
416 479 523 244 263 360 393 413 465 60 80 137 243 162 341 27 104 41 316 29
447 -38 441 -364 837 -791 961 -96 28 -305 40 -449 26z m349 -175 c230 -55
435 -195 556 -380 111 -169 155 -309 163 -512 7 -156 -7 -263 -48 -388 -47
-142 -92 -206 -287 -413 -137 -146 -466 -500 -558 -601 -15 -17 -78 40 -568
514 -188 182 -435 421 -551 532 -115 110 -221 212 -234 227 l-24 25 99 108
c371 401 586 627 652 686 125 110 298 188 478 217 76 12 241 4 322 -15z
m-1609 -1237 c36 -34 280 -267 541 -518 261 -250 492 -471 513 -489 20 -19 37
-37 37 -41 0 -8 -117 -136 -315 -345 -83 -88 -187 -198 -230 -245 -176 -187
-289 -266 -450 -312 -105 -30 -333 -32 -434 -5 -260 71 -486 246 -582 451 -71
153 -50 462 46 665 53 111 114 190 280 361 82 86 233 242 334 348 101 105 186
192 189 192 2 0 34 -28 71 -62z"/>
</g>
</svg> 